# xmcd
# 
# Track frame offsets:
#     150
#     14175
#     32490
# 
# Disc length: 616
# 
# Revision: 0
# Processed by: cddbd v1.5.2PL0 Copyright (c) Steve Scherf et al.
# Submitted via: fre:ac v1.0.31
# 
DISCID=1e026603
DTITLE=Yoshiko Goshima - Open Up - Maxi Single
DYEAR=1999
DGENRE=J-Pop
TTITLE0=Open Up
TTITLE1=Ronnie
TTITLE2=Open Up (Instrumental)
EXTD=
EXTT0=
EXTT1=
EXTT2=
PLAYORDER=
